<mxfile host="app.diagrams.net" modified="2023-05-30T17:34:48.358Z" agent="Mozilla/5.0 (Windows NT 10.0; Win64; x64) AppleWebKit/537.36 (KHTML, like Gecko) Chrome/113.0.0.0 Safari/537.36" etag="PKMQGLeYwPV3xSItPHvF" version="21.3.6" type="github">
  <diagram name="Страница 1" id="o_hjRnhAK1VHQcLgBF2E">
    <mxGraphModel dx="1304" dy="729" grid="1" gridSize="10" guides="1" tooltips="1" connect="1" arrows="1" fold="1" page="1" pageScale="1" pageWidth="827" pageHeight="1169" math="0" shadow="0">
      <root>
        <mxCell id="0" />
        <mxCell id="1" parent="0" />
        <mxCell id="ewUQO8zB_lp7ePAqQ4j7-1" value="Сотрудник" style="strokeWidth=1;shadow=0;dashed=0;align=center;html=1;shape=mxgraph.mockup.containers.window;align=left;verticalAlign=top;spacingLeft=8;strokeColor2=#008cff;strokeColor3=#c4c4c4;fontColor=#666666;mainText=;fontSize=17;labelBackgroundColor=none;whiteSpace=wrap;movable=0;resizable=0;rotatable=0;deletable=0;editable=0;locked=1;connectable=0;" vertex="1" parent="1">
          <mxGeometry x="90" y="120" width="1920" height="1080" as="geometry" />
        </mxCell>
        <mxCell id="ewUQO8zB_lp7ePAqQ4j7-2" value="Сотрудник" style="strokeWidth=1;shadow=0;dashed=0;align=center;html=1;shape=mxgraph.mockup.containers.window;align=left;verticalAlign=top;spacingLeft=8;strokeColor2=#008cff;strokeColor3=#c4c4c4;fontColor=#666666;mainText=;fontSize=17;labelBackgroundColor=none;whiteSpace=wrap;" vertex="1" parent="1">
          <mxGeometry x="90" y="1240" width="1920" height="1080" as="geometry" />
        </mxCell>
        <mxCell id="ewUQO8zB_lp7ePAqQ4j7-54" value="" style="group" vertex="1" connectable="0" parent="1">
          <mxGeometry x="110" y="160" width="294" height="294.28" as="geometry" />
        </mxCell>
        <mxCell id="ewUQO8zB_lp7ePAqQ4j7-14" value="" style="group" vertex="1" connectable="0" parent="ewUQO8zB_lp7ePAqQ4j7-54">
          <mxGeometry width="290" height="63" as="geometry" />
        </mxCell>
        <mxCell id="ewUQO8zB_lp7ePAqQ4j7-3" value="Фамилия" style="text;html=1;strokeColor=none;fillColor=none;align=center;verticalAlign=middle;whiteSpace=wrap;rounded=0;fontSize=20;fontColor=#CC0000;" vertex="1" parent="ewUQO8zB_lp7ePAqQ4j7-14">
          <mxGeometry x="105" width="80" height="30" as="geometry" />
        </mxCell>
        <mxCell id="ewUQO8zB_lp7ePAqQ4j7-5" value="" style="rounded=1;arcSize=9;align=left;spacingLeft=5;html=1;strokeWidth=4;fontSize=12;" vertex="1" parent="ewUQO8zB_lp7ePAqQ4j7-14">
          <mxGeometry y="30" width="290" height="33" as="geometry" />
        </mxCell>
        <mxCell id="ewUQO8zB_lp7ePAqQ4j7-15" value="" style="group" vertex="1" connectable="0" parent="ewUQO8zB_lp7ePAqQ4j7-54">
          <mxGeometry y="70" width="290" height="63" as="geometry" />
        </mxCell>
        <mxCell id="ewUQO8zB_lp7ePAqQ4j7-6" value="Имя" style="text;html=1;strokeColor=none;fillColor=none;align=center;verticalAlign=middle;whiteSpace=wrap;rounded=0;fontSize=20;fontColor=#CC0000;" vertex="1" parent="ewUQO8zB_lp7ePAqQ4j7-15">
          <mxGeometry x="105" width="80" height="30" as="geometry" />
        </mxCell>
        <mxCell id="ewUQO8zB_lp7ePAqQ4j7-7" value="" style="rounded=1;arcSize=9;align=left;spacingLeft=5;html=1;strokeWidth=4;fontSize=12;" vertex="1" parent="ewUQO8zB_lp7ePAqQ4j7-15">
          <mxGeometry y="30" width="290" height="33" as="geometry" />
        </mxCell>
        <mxCell id="ewUQO8zB_lp7ePAqQ4j7-16" value="" style="group" vertex="1" connectable="0" parent="ewUQO8zB_lp7ePAqQ4j7-54">
          <mxGeometry y="140" width="290" height="63" as="geometry" />
        </mxCell>
        <mxCell id="ewUQO8zB_lp7ePAqQ4j7-9" value="" style="rounded=1;arcSize=9;align=left;spacingLeft=5;html=1;strokeWidth=4;fontSize=12;" vertex="1" parent="ewUQO8zB_lp7ePAqQ4j7-16">
          <mxGeometry y="30" width="290" height="33" as="geometry" />
        </mxCell>
        <mxCell id="ewUQO8zB_lp7ePAqQ4j7-17" value="" style="group" vertex="1" connectable="0" parent="ewUQO8zB_lp7ePAqQ4j7-54">
          <mxGeometry x="3" y="210" width="107" height="84.28" as="geometry" />
        </mxCell>
        <mxCell id="ewUQO8zB_lp7ePAqQ4j7-52" value="" style="group" vertex="1" connectable="0" parent="ewUQO8zB_lp7ePAqQ4j7-17">
          <mxGeometry width="107" height="63" as="geometry" />
        </mxCell>
        <mxCell id="ewUQO8zB_lp7ePAqQ4j7-11" value="" style="rounded=1;arcSize=9;align=left;spacingLeft=5;html=1;strokeWidth=4;fontSize=12;" vertex="1" parent="ewUQO8zB_lp7ePAqQ4j7-52">
          <mxGeometry y="30" width="107" height="33" as="geometry" />
        </mxCell>
        <mxCell id="ewUQO8zB_lp7ePAqQ4j7-12" value="" style="shape=image;html=1;verticalAlign=top;verticalLabelPosition=bottom;labelBackgroundColor=#ffffff;imageAspect=0;aspect=fixed;image=https://cdn1.iconfinder.com/data/icons/material-core/10/arrow-drop-down-128.png" vertex="1" parent="ewUQO8zB_lp7ePAqQ4j7-52">
          <mxGeometry x="87" y="37.25" width="18.5" height="18.5" as="geometry" />
        </mxCell>
        <mxCell id="ewUQO8zB_lp7ePAqQ4j7-13" value="Пол" style="text;html=1;strokeColor=none;fillColor=none;align=center;verticalAlign=middle;whiteSpace=wrap;rounded=0;fontSize=20;fontColor=#CC0000;" vertex="1" parent="ewUQO8zB_lp7ePAqQ4j7-52">
          <mxGeometry x="38.74" width="29.517241379310345" height="30" as="geometry" />
        </mxCell>
        <mxCell id="ewUQO8zB_lp7ePAqQ4j7-51" value="" style="group" vertex="1" connectable="0" parent="ewUQO8zB_lp7ePAqQ4j7-54">
          <mxGeometry x="140" y="210" width="154" height="63" as="geometry" />
        </mxCell>
        <mxCell id="ewUQO8zB_lp7ePAqQ4j7-23" value="&lt;div style=&quot;&quot;&gt;&lt;span style=&quot;background-color: initial;&quot;&gt;&lt;font style=&quot;font-size: 21px;&quot;&gt;**.**.****&lt;/font&gt;&lt;/span&gt;&lt;/div&gt;" style="rounded=1;arcSize=9;align=left;spacingLeft=5;html=1;strokeWidth=4;fontSize=12;" vertex="1" parent="ewUQO8zB_lp7ePAqQ4j7-51">
          <mxGeometry x="32" y="30" width="114" height="33" as="geometry" />
        </mxCell>
        <mxCell id="ewUQO8zB_lp7ePAqQ4j7-25" value="Дата Рождения" style="text;html=1;strokeColor=none;fillColor=none;align=center;verticalAlign=middle;whiteSpace=wrap;rounded=0;fontSize=20;fontColor=#CC0000;" vertex="1" parent="ewUQO8zB_lp7ePAqQ4j7-51">
          <mxGeometry x="14" width="150" height="30" as="geometry" />
        </mxCell>
        <mxCell id="ewUQO8zB_lp7ePAqQ4j7-26" value="" style="sketch=0;pointerEvents=1;shadow=0;dashed=0;html=1;strokeColor=none;fillColor=#505050;labelPosition=center;verticalLabelPosition=bottom;verticalAlign=top;outlineConnect=0;align=center;shape=mxgraph.office.concepts.calendar;" vertex="1" parent="ewUQO8zB_lp7ePAqQ4j7-51">
          <mxGeometry x="128.37" y="36.5" width="21.63" height="20" as="geometry" />
        </mxCell>
        <mxCell id="ewUQO8zB_lp7ePAqQ4j7-8" value="&lt;font color=&quot;#000000&quot;&gt;Отчество&lt;/font&gt;" style="text;html=1;strokeColor=none;fillColor=none;align=center;verticalAlign=middle;whiteSpace=wrap;rounded=0;fontSize=20;fontColor=#CC0000;" vertex="1" parent="ewUQO8zB_lp7ePAqQ4j7-54">
          <mxGeometry x="105" y="140" width="80" height="30" as="geometry" />
        </mxCell>
        <mxCell id="ewUQO8zB_lp7ePAqQ4j7-48" value="" style="group" vertex="1" connectable="0" parent="1">
          <mxGeometry x="110" y="640" width="290" height="63" as="geometry" />
        </mxCell>
        <mxCell id="ewUQO8zB_lp7ePAqQ4j7-50" value="" style="rounded=1;arcSize=9;align=left;spacingLeft=5;html=1;strokeWidth=4;fontSize=12;" vertex="1" parent="ewUQO8zB_lp7ePAqQ4j7-48">
          <mxGeometry y="30" width="290" height="33" as="geometry" />
        </mxCell>
        <mxCell id="ewUQO8zB_lp7ePAqQ4j7-59" value="" style="group" vertex="1" connectable="0" parent="1">
          <mxGeometry x="110" y="454.28" width="290" height="100" as="geometry" />
        </mxCell>
        <mxCell id="ewUQO8zB_lp7ePAqQ4j7-31" value="Паспорт" style="text;html=1;strokeColor=none;fillColor=none;align=center;verticalAlign=middle;whiteSpace=wrap;rounded=0;fontSize=20;fontColor=#CC0000;" vertex="1" parent="ewUQO8zB_lp7ePAqQ4j7-59">
          <mxGeometry x="70" width="150" height="30" as="geometry" />
        </mxCell>
        <mxCell id="ewUQO8zB_lp7ePAqQ4j7-33" value="" style="group" vertex="1" connectable="0" parent="ewUQO8zB_lp7ePAqQ4j7-59">
          <mxGeometry y="15.720000000000027" width="107" height="84.28" as="geometry" />
        </mxCell>
        <mxCell id="ewUQO8zB_lp7ePAqQ4j7-34" value="&lt;font style=&quot;font-size: 21px;&quot;&gt;****&lt;br&gt;&lt;/font&gt;" style="rounded=1;arcSize=9;align=center;spacingLeft=5;html=1;strokeWidth=4;fontSize=12;" vertex="1" parent="ewUQO8zB_lp7ePAqQ4j7-33">
          <mxGeometry y="30" width="107" height="33" as="geometry" />
        </mxCell>
        <mxCell id="ewUQO8zB_lp7ePAqQ4j7-37" value="" style="group" vertex="1" connectable="0" parent="ewUQO8zB_lp7ePAqQ4j7-59">
          <mxGeometry x="183" y="15.720000000000027" width="107" height="84.28" as="geometry" />
        </mxCell>
        <mxCell id="ewUQO8zB_lp7ePAqQ4j7-38" value="&lt;font style=&quot;font-size: 21px;&quot;&gt;******&lt;br&gt;&lt;/font&gt;" style="rounded=1;arcSize=9;align=center;spacingLeft=5;html=1;strokeWidth=4;fontSize=12;" vertex="1" parent="ewUQO8zB_lp7ePAqQ4j7-37">
          <mxGeometry y="30" width="107" height="33" as="geometry" />
        </mxCell>
        <mxCell id="ewUQO8zB_lp7ePAqQ4j7-39" value="Номер" style="text;html=1;strokeColor=none;fillColor=none;align=center;verticalAlign=middle;whiteSpace=wrap;rounded=0;fontSize=20;fontColor=#CC0000;" vertex="1" parent="ewUQO8zB_lp7ePAqQ4j7-37">
          <mxGeometry x="38.74" width="29.517241379310345" height="30" as="geometry" />
        </mxCell>
        <mxCell id="ewUQO8zB_lp7ePAqQ4j7-40" value="Выдан" style="text;html=1;strokeColor=none;fillColor=none;align=center;verticalAlign=middle;whiteSpace=wrap;rounded=0;fontSize=20;fontColor=#CC0000;" vertex="1" parent="1">
          <mxGeometry x="170" y="554.28" width="150" height="30" as="geometry" />
        </mxCell>
        <mxCell id="ewUQO8zB_lp7ePAqQ4j7-41" value="" style="group" vertex="1" connectable="0" parent="1">
          <mxGeometry x="110" y="570" width="107" height="84.28" as="geometry" />
        </mxCell>
        <mxCell id="ewUQO8zB_lp7ePAqQ4j7-42" value="&lt;font style=&quot;font-size: 21px;&quot;&gt;&lt;br&gt;&lt;/font&gt;" style="rounded=1;arcSize=9;align=center;spacingLeft=5;html=1;strokeWidth=4;fontSize=12;" vertex="1" parent="ewUQO8zB_lp7ePAqQ4j7-41">
          <mxGeometry y="30" width="107" height="33" as="geometry" />
        </mxCell>
        <mxCell id="ewUQO8zB_lp7ePAqQ4j7-57" value="" style="group" vertex="1" connectable="0" parent="1">
          <mxGeometry x="280" y="570" width="117" height="63" as="geometry" />
        </mxCell>
        <mxCell id="ewUQO8zB_lp7ePAqQ4j7-45" value="&lt;div style=&quot;&quot;&gt;&lt;span style=&quot;font-size: 21px; background-color: initial;&quot;&gt;**.**.****&lt;/span&gt;&lt;/div&gt;" style="rounded=1;arcSize=9;align=left;spacingLeft=5;html=1;strokeWidth=4;fontSize=12;" vertex="1" parent="ewUQO8zB_lp7ePAqQ4j7-57">
          <mxGeometry y="30" width="117" height="33" as="geometry" />
        </mxCell>
        <mxCell id="ewUQO8zB_lp7ePAqQ4j7-46" value="Когда" style="text;html=1;strokeColor=none;fillColor=none;align=center;verticalAlign=middle;whiteSpace=wrap;rounded=0;fontSize=20;fontColor=#CC0000;" vertex="1" parent="ewUQO8zB_lp7ePAqQ4j7-57">
          <mxGeometry x="42.36" width="32.275862068965516" height="30" as="geometry" />
        </mxCell>
        <mxCell id="ewUQO8zB_lp7ePAqQ4j7-47" value="" style="sketch=0;pointerEvents=1;shadow=0;dashed=0;html=1;strokeColor=none;fillColor=#505050;labelPosition=center;verticalLabelPosition=bottom;verticalAlign=top;outlineConnect=0;align=center;shape=mxgraph.office.concepts.calendar;" vertex="1" parent="ewUQO8zB_lp7ePAqQ4j7-57">
          <mxGeometry x="87.4766355140187" y="36.5" width="23.651495327102804" height="20" as="geometry" />
        </mxCell>
        <mxCell id="ewUQO8zB_lp7ePAqQ4j7-36" value="Серия" style="text;html=1;strokeColor=none;fillColor=none;align=center;verticalAlign=middle;whiteSpace=wrap;rounded=0;fontSize=20;fontColor=#CC0000;" vertex="1" parent="1">
          <mxGeometry x="148.74" y="470" width="29.517241379310345" height="30" as="geometry" />
        </mxCell>
        <mxCell id="ewUQO8zB_lp7ePAqQ4j7-43" value="Кем" style="text;html=1;strokeColor=none;fillColor=none;align=center;verticalAlign=middle;whiteSpace=wrap;rounded=0;fontSize=20;fontColor=#CC0000;" vertex="1" parent="1">
          <mxGeometry x="148.74" y="570" width="29.517241379310345" height="30" as="geometry" />
        </mxCell>
        <mxCell id="ewUQO8zB_lp7ePAqQ4j7-49" value="&lt;font color=&quot;#000000&quot;&gt;ИНН&lt;/font&gt;" style="text;html=1;strokeColor=none;fillColor=none;align=center;verticalAlign=middle;whiteSpace=wrap;rounded=0;fontSize=20;fontColor=#CC0000;" vertex="1" parent="1">
          <mxGeometry x="215" y="640" width="80" height="30" as="geometry" />
        </mxCell>
      </root>
    </mxGraphModel>
  </diagram>
</mxfile>
